<svg width="190" height="105" viewBox="0 0 190 105" fill="none" xmlns="http://www.w3.org/2000/svg">
<path fill-rule="evenodd" clip-rule="evenodd" d="M124.111 39.2517L126.605 39.2517C126.495 39.8329 126.381 40.4127 126.262 40.9887L125.675 40.8823C121.245 40.0773 118.179 40.0051 115.876 40.624C113.4 41.2896 112.063 42.6841 111.001 44.0215L110.878 44.1771L110.784 44.3522C110.747 44.4217 110.7 44.5058 110.645 44.6038C109.982 45.7909 108.184 49.0109 109.135 52.8135C109.652 54.8804 110.531 57.3254 112.412 58.9836C114.461 60.7895 117.25 61.3 120.702 60.3733C123.4 59.6491 125.257 57.1486 126.567 54.5615C127.782 52.1633 128.774 49.1927 129.586 46.0554C130.665 46.2621 131.411 46.4194 131.946 46.5607L132.895 42.2827C132.285 42.1293 131.524 41.9686 130.571 41.7838C131.882 35.4055 132.63 28.6829 132.978 24.2004L128.631 23.6893L128.48 24.6457C126.536 24.3391 124.282 24.1616 122.201 24.393C119.48 24.6956 116.076 25.8546 115.162 29.4701C114.511 32.0452 114.801 34.6515 116.594 36.5963C118.319 38.4681 121.011 39.2517 124.111 39.2517ZM126.866 34.8711L127.797 28.9728C126.116 28.7077 124.272 28.5703 122.685 28.7468C120.408 29 119.613 29.739 119.409 30.5433C118.997 32.1759 119.326 33.0969 119.815 33.6275C120.371 34.2311 121.623 34.8711 124.111 34.8711L126.866 34.8711ZM124.892 45.1923L125.266 45.2601C124.514 48.1104 123.644 50.6375 122.659 52.5823C121.446 54.979 120.336 55.9358 119.566 56.1425C117.135 56.7954 115.98 56.289 115.309 55.6974C114.47 54.9584 113.854 53.6256 113.385 51.7504C112.872 49.7033 113.825 47.9397 114.509 46.6737L114.551 46.5972C115.295 45.6805 115.899 45.1538 117.013 44.8545C118.359 44.4927 120.645 44.4205 124.892 45.1923Z" fill="white"/>
<path fill-rule="evenodd" clip-rule="evenodd" d="M58.309 74.7203L62.7044 70.3488L104.334 66.1186L104.798 70.1547L71.1599 74.41L70.8511 77.586L105.338 74.8635L105.879 79.5723L69.9246 82.0546L70.3106 85.418L105.447 84.3482L104.044 89.1911L70.8511 90.1268L71.1599 92.8175L102.564 93.3614L103.105 98.0702L65.9472 98.6016L54.4554 88.5141L54.2733 81.7036L58.309 74.7203Z" fill="white"/>
<path d="M24.104 81.6382H67.0172V88.4739H24.104V81.6382Z" fill="white"/>
<path d="M54.7205 42.9827L102.288 43.5332L102.288 36.1957L55.7438 36.1952C54.4069 34.4874 52.1992 29.3278 47.5787 26.6701C41.6967 23.2867 37.3426 23.4831 32.9753 24.8419C28.7381 26.1601 24.4289 27.4368 20.6016 32.7455C16.2955 38.7183 17.2862 48.7149 26.1203 51.8797C34.7738 54.9799 38.5003 54.3997 43.9015 52.7194C48.1386 51.4014 53.7211 45.2242 54.7205 42.9827Z" fill="white"/>
<path d="M14.1985 48.7369C14.1985 48.9636 14.1985 49.2091 14.1985 49.4736C14.2362 49.7002 14.3496 49.908 14.5385 50.0969C14.954 49.9836 15.464 49.4736 16.0685 48.5669C16.6729 47.6224 17.2963 46.4513 17.9385 45.0535C18.6185 43.6557 19.2797 42.1068 19.9219 40.4067C20.6019 38.7067 21.2253 37.0067 21.7919 35.3066C22.3586 33.5688 22.8308 31.9444 23.2086 30.4332C23.6242 28.8843 26.2321 31.0077 26.3833 29.95L24.0586 41.4268C24.0586 42.1068 23.9264 42.9379 23.662 43.9201C23.3975 44.8646 23.0197 45.8657 22.5286 46.9235C22.0375 47.9813 21.4519 49.0391 20.7719 50.0969C20.1297 51.1547 19.4119 52.0992 18.6185 52.9303C17.863 53.7614 17.0507 54.4414 16.1818 54.9703C15.3129 55.4614 14.444 55.707 13.5751 55.707C12.064 55.707 10.9306 55.3292 10.1751 54.5737C9.41949 53.7803 9.04171 52.3636 9.04171 50.3236C9.04171 48.5102 9.17393 46.7346 9.43838 44.9968C9.70283 43.2212 9.98617 41.4456 10.2884 39.6701C10.6284 37.8945 10.9495 36.1189 11.2517 34.3433C11.554 32.5677 11.7618 30.7732 11.8751 28.9599V28.7332C11.8751 28.0154 11.7429 27.4487 11.4784 27.0332C11.2517 26.5798 10.8928 26.3532 10.4017 26.3532C9.64616 26.3532 9.06059 26.7498 8.64503 27.5432C8.26725 28.2987 8.05947 29.3565 8.02169 30.7166L5.35831 55.4803H0.428223L3.60161 21.1964H9.15504L8.92837 23.0098C9.11726 22.5942 9.49505 22.1597 10.0617 21.7064C10.6662 21.2153 11.4029 20.9697 12.2718 20.9697C14.1229 20.9697 15.4451 21.6875 16.2385 23.1231C17.0318 24.5209 17.4285 26.3532 17.4285 28.6199C17.4285 30.2066 17.2585 31.9255 16.9185 33.7766C16.5785 35.6278 16.2007 37.46 15.7852 39.2734C15.4074 41.0867 15.0485 42.8246 14.7085 44.4868C14.3685 46.1491 14.1985 47.5658 14.1985 48.7369Z" fill="white"/>
<path d="M32.2013 66.3076C34.0525 66.3076 35.6391 66.7232 36.9614 67.5543C38.3214 68.3477 39.417 69.4243 40.2481 70.7844C41.117 72.1444 41.7404 73.7122 42.1181 75.4878C42.5337 77.2256 42.7415 79.0201 42.7415 80.8712C42.7415 83.0246 42.477 85.2913 41.9481 87.6713C41.457 90.0136 40.6448 92.1858 39.5114 94.1881C38.4159 96.1526 36.9992 97.7771 35.2614 99.0615C33.5613 100.346 31.5024 100.988 29.0846 100.988C27.2334 100.988 25.6468 100.592 24.3245 99.7982C23.0023 98.9671 21.9067 97.8715 21.0378 96.5115C20.2067 95.1515 19.5833 93.6025 19.1678 91.8647C18.79 90.1269 18.6011 88.3513 18.6011 86.538C18.6011 84.3846 18.8466 82.1179 19.3378 79.7379C19.8667 77.3578 20.6789 75.1855 21.7745 73.2211C22.87 71.2188 24.2678 69.5755 25.9679 68.291C27.7057 66.9687 29.7835 66.3076 32.2013 66.3076ZM36.338 82.4012C36.338 81.1168 36.2436 79.8134 36.0547 78.4912C35.9036 77.1689 35.6203 75.96 35.2047 74.8644C34.7891 73.7689 34.2036 72.8622 33.448 72.1444C32.7302 71.3888 31.8046 70.9733 30.6713 70.8977C29.5379 71.0866 28.5935 71.7477 27.8379 72.8811C27.1201 73.9766 26.5345 75.2611 26.0812 76.7345C25.6656 78.17 25.3634 79.6623 25.1745 81.2112C25.0234 82.7223 24.9479 83.9879 24.9479 85.0079C24.9479 86.2546 25.0423 87.5391 25.2312 88.8613C25.4201 90.1836 25.7223 91.3925 26.1379 92.4881C26.5912 93.5836 27.1768 94.5092 27.8946 95.2648C28.6124 95.9826 29.519 96.3793 30.6146 96.4548C31.7102 96.2281 32.6169 95.567 33.3347 94.4714C34.0902 93.3381 34.6758 92.0536 35.0914 90.618C35.5447 89.1447 35.8658 87.6713 36.0547 86.198C36.2436 84.6868 36.338 83.4212 36.338 82.4012Z" fill="white"/>
<path fill-rule="evenodd" clip-rule="evenodd" d="M78.9125 31.7785C78.4265 30.7009 77.9036 29.8076 77.3439 29.0986C76.815 28.3808 76.2672 27.8519 75.7005 27.5119C75.1338 27.1341 74.6049 26.9452 74.1138 26.9452C73.2071 26.9452 72.3382 27.4174 71.5071 28.3619C70.676 29.2686 69.9582 30.4586 69.3537 31.932C68.7493 33.3675 68.2581 34.9731 67.8804 36.7487C67.5404 38.4865 67.3704 40.1865 67.3704 41.8488C67.3704 43.6622 67.5404 45.3244 67.8804 46.8355C68.2581 48.3089 68.7493 49.5745 69.3537 50.6323C69.9582 51.6901 70.6382 52.5212 71.3938 53.1257C72.1493 53.6923 72.9238 53.9757 73.7171 53.9757C74.4727 53.9757 75.2094 53.7112 75.9272 53.1823C76.645 52.6534 77.2872 51.8979 77.8539 50.9156C78.4583 49.9334 78.9494 48.7245 79.3272 47.2889C79.4965 46.7041 79.6407 46.0912 79.7598 45.45H84.9292C84.6857 46.3398 84.4051 47.2172 84.0873 48.0822C83.4073 49.9334 82.5195 51.5767 81.4239 53.0123C80.3284 54.4479 79.025 55.6001 77.5139 56.469C76.0027 57.3379 74.246 57.7724 72.2438 57.7724C70.3926 57.7724 68.8059 57.3757 67.4837 56.5824C66.1614 55.7513 65.0659 54.6557 64.197 53.2957C63.3658 51.9356 62.7425 50.3867 62.3269 48.6489C61.9491 46.9111 61.7603 45.1355 61.7603 43.3221C61.7603 41.1688 62.0058 38.9021 62.4969 36.522C63.0258 34.142 63.8381 31.9697 64.9336 30.0053C66.0292 28.003 67.427 26.3596 69.127 25.0752C70.8649 23.7529 72.9427 23.0918 75.3605 23.0918C77.0605 23.0918 78.5339 23.4318 79.7806 24.1118C81.065 24.754 82.1417 25.6418 83.0106 26.7752C83.8795 27.9085 84.5406 29.2497 84.994 30.7986C85.0985 31.1201 85.1944 31.4468 85.2818 31.7785H78.9125Z" fill="white"/>
<path d="M187.919 47.9723C186.665 50.212 186.188 55.3436 183.037 55.7609C180.357 56.1157 179.275 51.9403 179.119 51.0181L181.939 23.1543C180.007 34.0232 175.671 55.7609 173.79 55.7609C171.909 55.7609 170.917 34.0232 170.656 23.1543C170.133 34.0232 168.524 55.7609 166.267 55.7609C164.011 55.7609 163.669 49.5532 162.519 47.9723" stroke="white" stroke-width="4.26559"/>
<path d="M130.298 73.3451C130.849 73.1988 131.402 70.8348 131.329 69.7815C131.255 68.7282 130.256 67.6456 129.766 67.236C128.633 66.8264 118.673 64.2622 115.732 69.9501C112.792 75.638 115.732 79.4787 118.177 80.7922C119.158 81.3188 125.539 83.4746 128.112 78.5591C130.685 73.6436 132.248 68.9623 132.707 67.236C130.777 76.7158 123.117 102.944 117.089 102.804C109.553 102.629 107.685 92.9838 109.49 91.5245C117.485 85.0632 124.161 87.9291 132.707 85.8225" stroke="white" stroke-width="4.3806"/>
<path d="M142.799 23.1543L138.647 43.0424C137.609 47.2715 136.623 55.5925 140.982 55.0439C145.342 54.4953 149.199 45.6713 150.583 41.3279M150.583 41.3279L151.751 24.183M150.583 41.3279C150.194 45.2141 149.649 53.398 150.583 55.0439C151.751 57.1013 154.858 52.782 156.156 48.1528" stroke="white" stroke-width="5.00209"/>
<path fill-rule="evenodd" clip-rule="evenodd" d="M140.559 64.9854L135.63 84.836C134.979 87.0816 134.3 90.526 134.533 93.4803C134.649 94.9455 135.013 96.6468 136.056 97.9834C137.242 99.5033 139.023 100.2 141.088 99.9819C143.041 99.7752 144.749 98.8155 146.153 97.6635C147.364 96.6705 148.46 95.4441 149.426 94.1598C149.459 94.7445 149.503 95.3043 149.562 95.8234C149.632 96.4329 149.726 97.0326 149.859 97.5726C149.98 98.0629 150.182 98.7198 150.57 99.2943C151.216 100.252 152.173 100.674 152.954 100.841C153.722 101.005 154.505 100.971 155.193 100.868C155.939 100.757 156.728 100.542 157.519 100.252V94.7669C157.424 94.8184 157.33 94.8687 157.235 94.9178C156.213 95.4464 155.289 95.7671 154.62 95.893C154.589 95.7087 154.56 95.4969 154.532 95.257C154.421 94.284 154.365 93.0333 154.357 91.6587C154.341 88.909 154.516 85.8947 154.734 84.0673L154.74 84.0204L154.743 83.9734L156.133 66.8193L151.147 66.4154L149.787 83.2083C148.991 85.2298 147.581 88.1386 145.826 90.6087C144.902 91.9095 143.937 93.0117 142.981 93.7964C142.013 94.5901 141.202 94.9398 140.562 95.0076C140.078 95.0587 140.022 94.9484 140.004 94.9143C140.004 94.913 140.003 94.9118 140.003 94.9107C140.002 94.9091 140.001 94.9078 140 94.9068C139.842 94.7046 139.605 94.163 139.52 93.0865C139.353 90.9795 139.866 88.1748 140.446 86.1877L140.461 86.1389L140.473 86.0896L145.414 66.1908L140.559 64.9854Z" fill="white"/>
<path fill-rule="evenodd" clip-rule="evenodd" d="M91.2681 22.4868L86.3392 42.3375C85.6884 44.5831 85.0089 48.0274 85.2422 50.9818C85.3579 52.4469 85.7225 54.1483 86.7652 55.4849C87.9508 57.0048 89.7324 57.7018 91.7969 57.4834C93.7503 57.2767 95.4584 56.3169 96.8624 55.165C98.0728 54.1719 99.1685 52.9456 100.135 51.6613C100.168 52.2459 100.212 52.8058 100.271 53.3249C100.341 53.9344 100.435 54.5341 100.568 55.0741C100.689 55.5644 100.891 56.2213 101.279 56.7958C101.925 57.7531 102.882 58.1755 103.663 58.3426C104.431 58.5069 105.214 58.4722 105.902 58.3697C106.648 58.2584 107.437 58.0435 108.228 57.7537V52.2683C108.133 52.3199 108.039 52.3702 107.944 52.4192C106.922 52.9479 105.998 53.2685 105.329 53.3945C105.298 53.2102 105.269 52.9984 105.241 52.7585C105.13 51.7854 105.074 50.5347 105.066 49.1602C105.05 46.4105 105.225 43.3962 105.443 41.5687L105.449 41.5219L105.452 41.4748L106.842 24.3207L101.856 23.9168L100.496 40.7097C99.7 42.7313 98.2896 45.64 96.5353 48.1101C95.6114 49.411 94.6462 50.5131 93.6896 51.2979C92.7223 52.0916 91.9111 52.4413 91.2706 52.509C90.7874 52.5602 90.7309 52.4498 90.7134 52.4157C90.7128 52.4144 90.7122 52.4133 90.7116 52.4122C90.7107 52.4106 90.71 52.4092 90.7092 52.4082C90.5514 52.206 90.3138 51.6645 90.2288 50.588C90.0624 48.4809 90.5753 45.6763 91.1554 43.6891L91.1696 43.6404L91.1819 43.591L96.1228 23.6922L91.2681 22.4868Z" fill="white"/>
<path fill-rule="evenodd" clip-rule="evenodd" d="M182.084 65.8637L186.315 66.1589L187.508 98.6802C187.583 99.2825 187.751 99.8614 188 100.416L183.599 100.791C183.441 100.245 183.326 99.6747 183.26 99.0797L183.251 99.001L183.248 98.9219L182.724 84.6215C182.539 85.4599 182.354 86.2863 182.168 87.0938C181.384 90.5054 180.59 93.6303 179.862 95.9229C179.502 97.0564 179.133 98.0684 178.76 98.8286C178.578 99.1983 178.346 99.6127 178.05 99.9662C177.838 100.219 177.16 100.977 176.034 100.977C174.866 100.977 174.191 100.172 173.977 99.8904C173.69 99.5147 173.481 99.0811 173.325 98.7059C173.004 97.9315 172.711 96.9087 172.44 95.7714C172.064 94.1943 171.694 92.2285 171.343 90.0474C171.061 92.2052 170.75 94.1562 170.411 95.7272C170.165 96.8693 169.881 97.9176 169.541 98.7209C169.375 99.1128 169.143 99.5723 168.811 99.9682C168.501 100.338 167.821 100.977 166.762 100.977C164.453 100.977 162.854 99.1711 162.051 97.7188C161.206 96.1905 160.673 94.0873 161.207 92.2184L165.308 93.3902C165.185 93.8211 165.277 94.7376 165.783 95.6541C165.847 95.7685 165.909 95.8706 165.97 95.9617C166.057 95.6369 166.148 95.2594 166.241 94.8275C166.694 92.7294 167.114 89.76 167.487 86.3823C168.23 79.649 168.76 71.545 169.02 66.1347L173.282 66.1859C173.41 71.5155 174.151 79.5818 175.097 86.3198C175.46 88.9051 175.848 91.2607 176.236 93.1709C176.795 91.2252 177.399 88.8039 178.011 86.1387C179.561 79.3927 181.121 71.2787 182.084 65.8637Z" fill="white"/>
<path fill-rule="evenodd" clip-rule="evenodd" d="M13.4726 94.7107C13.4998 94.5225 13.5281 94.3268 13.555 94.1244C13.6998 93.0389 13.9402 91.4869 14.2802 89.8247C14.6203 88.1624 14.9792 86.4246 15.3569 84.6113C15.7725 82.7979 16.1503 80.9657 16.4903 79.1145C16.8303 77.2634 17.0003 75.5444 17.0003 73.9578C17.0003 71.691 16.6036 69.8588 15.8103 68.461C15.0169 67.0254 13.6947 66.3076 11.8435 66.3076C10.9746 66.3076 10.238 66.5532 9.6335 67.0443C9.42667 67.2098 9.12331 67.6232 8.79481 68.0708C8.22329 68.8496 7.5757 69.7322 7.22798 69.5931V66.5343H3.17339L0 100.818H4.3806L6.78992 75.7711C6.8277 74.4111 7.38016 72.769 8.61348 71.861C9.27057 71.2358 9.75786 71.2358 10.5134 71.2358C11.1705 71.4548 11.2851 71.7834 11.4469 72.3309C11.6086 72.8785 11.6086 73.24 11.6086 73.9578V74.8498C11.5315 76.0827 11.3361 77.0517 11.1238 78.1038C11.0239 78.5991 10.9203 79.1128 10.8235 79.6812C10.5213 81.4568 10.2002 83.2324 9.86017 85.0079C9.55795 86.7835 9.27461 88.5591 9.01016 90.3347C8.74571 92.0725 8.61348 93.8481 8.61348 95.6615C8.61348 97.7015 8.99127 99.1182 9.74684 99.9115C10.5024 100.667 11.6358 101.045 13.1469 101.045C14.0158 101.045 14.8847 100.799 15.7536 100.308C16.1938 100.04 16.6194 99.7336 17.0304 99.3882L17.5053 95.7763C16.6761 96.4249 15.618 97.0033 15.3321 97.0813C15.088 97.1479 14.9204 97.2029 14.7915 97.2452C14.4575 97.3547 14.3824 97.3794 13.9084 97.3003C13.1402 97.0123 13.2791 96.0506 13.4726 94.7107Z" fill="white"/>
</svg>
